<?xml version="1.0" encoding="UTF-8" standalone="no"?>
<!-- Generator: Adobe Illustrator 14.0.0, SVG Export Plug-In . SVG Version: 6.00 Build 43363)  -->

<svg
   xmlns:dc="http://purl.org/dc/elements/1.1/"
   xmlns:cc="http://creativecommons.org/ns#"
   xmlns:rdf="http://www.w3.org/1999/02/22-rdf-syntax-ns#"
   xmlns:svg="http://www.w3.org/2000/svg"
   xmlns="http://www.w3.org/2000/svg"
   xmlns:sodipodi="http://sodipodi.sourceforge.net/DTD/sodipodi-0.dtd"
   xmlns:inkscape="http://www.inkscape.org/namespaces/inkscape"
   version="1.1"
   id="Layer_1"
   x="0px"
   y="0px"
   width="300px"
   height="300px"
   viewBox="0 0 300 300"
   enable-background="new 0 0 300 300"
   xml:space="preserve"
   inkscape:version="0.91 r13725"
   sodipodi:docname="trysilr.svg"><metadata
     id="metadata3400"><rdf:RDF><cc:Work
         rdf:about=""><dc:format>image/svg+xml</dc:format><dc:type
           rdf:resource="http://purl.org/dc/dcmitype/StillImage" /><dc:title></dc:title></cc:Work></rdf:RDF></metadata><defs
     id="defs3398"><inkscape:perspective
       sodipodi:type="inkscape:persp3d"
       inkscape:vp_x="0 : 150 : 1"
       inkscape:vp_y="0 : 1000 : 0"
       inkscape:vp_z="300 : 150 : 1"
       inkscape:persp3d-origin="150 : 100 : 1"
       id="perspective3469" /></defs><sodipodi:namedview
     pagecolor="#ffffff"
     bordercolor="#666666"
     borderopacity="1"
     objecttolerance="10"
     gridtolerance="10"
     guidetolerance="10"
     inkscape:pageopacity="0"
     inkscape:pageshadow="2"
     inkscape:window-width="1366"
     inkscape:window-height="712"
     id="namedview3396"
     showgrid="false"
     inkscape:zoom="1.7966667"
     inkscape:cx="150"
     inkscape:cy="150"
     inkscape:window-x="0"
     inkscape:window-y="30"
     inkscape:window-maximized="1"
     inkscape:current-layer="Layer_1" /><g
     id="g3454"
     transform="matrix(0.63610773,0,0,0.6044387,11.089627,-0.28361385)"><path
       id="path3456"
       d="m 116.25015,176.89584 c 25.428,0 46.58,-18.257 51.096,-42.375 9.427,5.323 27.3059,7.45417 38.9039,7.45417 19.501,0 29.9831,-7.67917 41.8971,-21.27917 9.403,13.418 24.974,22.2 42.603,22.2 28.719,0 52,-23.281 52,-51.999998 0,-28.719 -23.281,-52 -52,-52 -12.348,0 -23.683,4.312 -32.602,11.501 -10.359,-22.15 -32.83,-37.501 -58.898,-37.501 -35.302,0 -64.01,28.147 -64.955,63.221 -5.622,-2.081 -11.7,-3.221 -18.045,-3.221 -28.718999,0 -51.999999,23.281 -51.999999,51.999998 0,28.719 23.281,52 51.999999,52 z"
       inkscape:connector-curvature="0"
       style="fill:#aa4400"
       sodipodi:nodetypes="scscssscscsss" /><path
       id="path3458"
       d="m 376.75015,205.89584 -55.383,0 -4.097,-50 -140.503,0 c -11.274,21.962 -34.132,37 -60.517,37 -8.785,0 -17.170999,-1.684 -24.877999,-4.717 l -23.622,278.683 c 0,0 60.622999,23.034 138.817999,23.034 78.195,0 136.182,-23.034 136.182,-23.034 l -4.668,-56.966 38.668,0 c 27.614,0 50,-22.386 50,-50 l 0,-104 c 0,-27.615 -22.385,-50 -50,-50 z m -226,201 c 0,9.112 -7.387,16.5 -16.5,16.5 -9.113,0 -16.5,-7.388 -16.5,-16.5 l 0,-168 c 0,-9.113 7.387,-16.5 16.5,-16.5 9.113,0 16.5,7.387 16.5,16.5 z m 71,0 c 0,9.112 -7.387,16.5 -16.5,16.5 -9.113,0 -16.5,-7.388 -16.5,-16.5 l 0,-168 c 0,-9.113 7.387,-16.5 16.5,-16.5 9.113,0 16.5,7.387 16.5,16.5 z m 64,0 c 0,9.112 -7.387,16.5 -16.5,16.5 -9.113,0 -16.5,-7.388 -16.5,-16.5 l 0,-168 c 0,-9.113 7.387,-16.5 16.5,-16.5 9.113,0 16.5,7.387 16.5,16.5 z m 116,-59.747 c 0,20.845 -16.898,37.743 -37.743,37.743 l -27.974,0 -12.617,-153.992 40.591,0 c 20.845,0 37.743,16.898 37.743,37.743 z"
       inkscape:connector-curvature="0"
       style="fill:#aa4400"
       sodipodi:nodetypes="scccsccsccsssssssssssssssssssssssssssccsss" /></g><path
     d="M68.741,110.804c4.929-1.653,8.731,3.471,13.57,3.485c1.592-0.771,1.701-2.741,2.405-4.158  c-2.885-1.837-5.982-3.289-9.112-4.65c4.106-4.519,8.546-8.814,13.572-12.307c5.328-3.792,11.884-4.938,18.004-6.847  c6.446-1.792,12.797-4.405,19.586-4.455c7.003,0.023,14.244,1.173,21.053-1.015c3.615-1.302,5.908-4.607,7.583-7.888  c-1.379-2.92-2.404-6.372-5.36-8.117c-5.292-3.324-11.809-3.249-17.828-2.999c-14.513,1.176-27.904,8.264-38.975,17.412  c-8.443,6.83-15.336,15.396-20.753,24.774C48.312,93.067,24.092,82.182,0,71.033v6.509C22.897,88.18,45.947,98.5,68.932,108.952  C68.885,109.415,68.789,110.341,68.741,110.804z"
     id="path3386" /><path
     d="M300,151.094c-4.998-23.24-10.986-46.27-16.001-69.509c1.267-1.27,2.567-2.5,3.838-3.771  c-1.59,0.291-3.174,0.591-4.718,1.054c-0.996-4.27-1.566-8.695-3.184-12.781c-0.774-2.682-3.867-1.331-5.588-0.53  c0.277,5.534,2.166,10.796,3.238,16.195c-7.111,3.303-14.544,7.04-22.611,6.559c-7.055-0.462-14.084-1.282-21.125-1.907  c-9.131-0.933-16.793-7.008-25.881-8.063c-4.072-0.564-7.599,1.831-10.73,4.078c-1.408,5.281,1.125,10.828,5.57,13.8  c9.93,6.895,22.613,8.044,34.344,6.903c15.039-1.765,29.705-7.723,41.352-17.463c5.946,25.211,11.825,50.438,17.753,75.653  c1.218,5.676,2.915,11.262,3.743,17.017V151.094z"
     id="path3388" /><path
     d="M69.569,258.04c23.841-20.643,47.509-41.485,70.776-62.769c5.307-5.459,10.453-11.07,15.516-16.757  c6.302,4.062,13.26,6.963,19.606,10.943c2.526,1.508,3.013,4.736,2.88,7.429c-0.504,11.249-4.406,21.941-6.096,33.008  c-1.908,9.865-3.318,19.813-4.652,29.771c4.32-7.344,9.646-14.087,13.379-21.77c5.227-11.752,10.607-23.436,15.787-35.207  c3.184-8.688,6.025-19.448,0.074-27.622c-6.835-8.351-16.273-13.954-24.223-21.124c-0.237-1.85,0.019-3.758-0.465-5.569  c-1.084-3.158-4.039-5.037-6.801-6.583c-3.395-1.348-6.967-0.27-10.401,0.163c-5.409-2.388-10.916-4.764-16.844-5.498  c-4.75,0.727-9.704,3.316-11.436,8.072c-2.803,6.978,0.383,14.914,5.843,19.636c-9.537,13.609-19.099,27.204-28.637,40.814  C92.048,222.409,80.881,240.272,69.569,258.04z"
     id="path3390" /><path
     d="M4.384,268.381c81.53-0.018,163.06,0.02,244.587,0.002c5,0.14,10.129,0.096,14.932-1.482  c4.64-1.774,9.164-5.52,9.621-10.785c-1.254-0.851-2.492-2.034-4.145-1.669c-2.393,1.865-3.564,5.167-6.592,6.211  c-3.73,1.404-7.795,1.49-11.729,1.693c-10.166,0.123-20.336-0.097-30.5,0.107c1.547-1.642,2.496-3.702,3.09-5.856  c-1.073-1.112-2.209-2.374-3.916-2.277c-2.687,1.599-3.703,5.142-6.752,6.258c-4.111,1.531-8.6,1.553-12.931,1.795  c-65.223,0.006-130.447,0-195.671,0.003C4.381,264.377,4.383,266.378,4.384,268.381z"
     id="path3392" /><circle
     cx="187.266"
     cy="52.357"
     r="21.6"
     id="circle3394" /></svg>